<svg id="Layer_1" data-name="Layer 1" xmlns="http://www.w3.org/2000/svg" viewBox="0 0 1024 394"><defs><style>.cls-1{fill:#b1ff7f;}.cls-1,.cls-2{stroke:#009245;stroke-miterlimit:10;stroke-width:14px;}.cls-2{fill:#9c7fff;}</style></defs><ellipse class="cls-1" cx="512" cy="197" rx="505" ry="190"/><path class="cls-2" d="M354.5,495.62,332.89,301q-2.55-23,11.06-41.1t34.8-20.43l52.05-5.77q21.19-2.35,38.3,12.47a56.22,56.22,0,0,1,19.63,37.53l21.61,194.62-51.74,5.75L446.26,372.89l-52.05,5.78,12.34,111.17ZM400,335.88l52-5.78-6.15-55.42a28.17,28.17,0,0,0-9.84-19,24.56,24.56,0,0,0-19.45-6.12,24.23,24.23,0,0,0-17.33,10.2,28.22,28.22,0,0,0-5.43,20.71Z" transform="translate(-161 -172)"/><path class="cls-2" d="M533,473.27V233h93.52q19,0,32.76,15.86T673,286.5v13.14q0,23.7-11.62,37t-34.86,16.5q23.24,0,34.86,16.18T673,406.64v13.13q0,21.8-13.72,37.65t-32.76,15.85Zm46.76-133.59H603q9.79,0,16.66-7.85a27.52,27.52,0,0,0,6.86-18.74V286.5a28,28,0,0,0-6.86-19.06q-6.87-7.85-16.66-7.85H579.76Zm0,107H603q9.79,0,16.66-8a28.15,28.15,0,0,0,6.86-18.91V393.18q0-26.58-23.52-26.59H579.76Z" transform="translate(-161 -172)"/><path class="cls-2" d="M706,470.52V235h90.18q18.36,0,31.59,15.54T841,287.44v12.88q0,23.24-11.21,36.27t-33.61,16.17q22.41,0,33.61,15.86T841,405.2v12.88q0,21.36-13.23,36.89t-31.59,15.55Zm45.09-130.95H773.5q9.45,0,16.06-7.69a27.25,27.25,0,0,0,6.62-18.37V287.44a27.69,27.69,0,0,0-6.62-18.68q-6.62-7.69-16.06-7.7H751.09Zm0,104.89H773.5q9.45,0,16.06-7.86a27.82,27.82,0,0,0,6.62-18.52V392q0-26.06-22.68-26.06H751.09Z" transform="translate(-161 -172)"/><path class="cls-2" d="M889.66,487.47l15.2-108.87q-55-14.34-48.3-62.4L868,234.47l55.92,7.8L912.48,324A26,26,0,0,0,918,344.28,27.32,27.32,0,0,0,936.49,355a27.76,27.76,0,0,0,21-5.22,26.07,26.07,0,0,0,10.88-18l11.41-81.74,55.59,7.76L1024,339.58q-6.72,48.06-63.22,46.83l-15.2,108.87Z" transform="translate(-161 -172)"/></svg>